<?xml version="1.0" encoding="utf-8"?>
<!-- Svg Vector Icons : http://www.onlinewebfonts.com/icon -->
<!DOCTYPE svg PUBLIC "-//W3C//DTD SVG 1.1//EN" "http://www.w3.org/Graphics/SVG/1.1/DTD/svg11.dtd">
<svg version="1.1" xmlns="http://www.w3.org/2000/svg" xmlns:xlink="http://www.w3.org/1999/xlink" x="0px" y="0px" viewBox="0 0 256 256" enable-background="new 0 0 256 256" xml:space="preserve">
<metadata> Svg Vector Icons : http://www.onlinewebfonts.com/icon </metadata>
<g><g><g><path fill="#000000" d="M75.2,16.1C63.7,21.8,55,26.7,54.5,27.8c-1.9,3.4-1.2,7.4,1.4,9.4c1.4,1.1,3.3,2,4.2,2c0.9,0,8.9-3.6,17.8-7.9l16-8l1.6,4.2c0.8,2.4,1.9,4.1,2.3,4c0.3-0.2,3.1-1.6,6.2-3c3.1-1.5,5.8-2.8,5.9-2.9c0.7-0.6-5.9-15.3-7.6-17.3c-1.1-1.2-3-2.1-4.5-2.1C96.3,6.2,86.2,10.6,75.2,16.1z"/><path fill="#000000" d="M153.8,8.3c-1.8,2-8.3,16.7-7.6,17.2c0.2,0.2,3.1,1.6,6.6,3.2l6.3,2.8l1.6-4.1l1.5-4.2l16,8c8.9,4.3,16.8,7.9,17.8,7.9c0.9,0,2.7-0.8,4.2-2c2.6-2.1,3.3-6,1.4-9.5c-1.2-2.3-39.9-21.5-43.4-21.5C156.8,6.2,154.8,7.1,153.8,8.3z"/><path fill="#000000" d="M120.8,30.8c-11.8,1.8-22,7.3-30.3,16.4c-9.1,9.9-14.3,24.8-13,37.3c0.3,3.3,0.8,6.4,1,6.9c0.3,0.5,2.7-1.1,5.4-3.5c6.7-5.9,19.5-12.4,29.1-14.6c15.4-3.7,29.4-1.9,44.8,5.7c5.2,2.5,11.7,6.6,14.4,9c5.9,5.3,6.3,4.9,6.2-7.1c-0.1-17.8-9-33.7-24.5-43.3C145.2,31.9,131.3,29.1,120.8,30.8z"/><path fill="#000000" d="M112.9,80.7c-11.2,3-19.4,8-29.3,18c-12.7,12.7-19.7,25.7-23.8,43.5c-2.7,12.4-2.7,31.8,0,44.2c5.9,25.9,21.2,46.9,41.3,56.7c7.5,3.7,16.7,6.6,21,6.6h2.2l0.2-60c0.3-56.1,0.4-60.2,2-61.2c1.1-0.8,2.1-0.8,3.3,0c1.5,0.9,1.6,5.1,1.9,61.2l0.2,60h2.2c6.1,0,21.1-5.6,28.7-10.8c14.3-9.7,27.4-29.3,32.3-48.1c11.4-43.6-6.2-89-41.4-106.5C142.2,78.9,125.5,77.3,112.9,80.7z"/><path fill="#000000" d="M20.9,97.9c-3.9,3-3.4,7.7,1.1,11.9c7.6,7.1,28.2,19.2,32.6,19.2c0.8,0,2.5-2.8,4-6.3c2.2-5,2.5-6.4,1.4-6.7c-4.9-1.7-18.7-9.5-25-14.4c-4.2-3.1-8.5-5.7-9.5-5.7C24.3,95.9,22.4,96.8,20.9,97.9z"/><path fill="#000000" d="M221,101.6c-6.3,4.8-20.1,12.7-25,14.4c-1,0.3-0.7,1.9,1.5,7.2l2.8,6.7l7.3-3.1c7.8-3.4,20.8-11.7,26.4-16.9c2.7-2.6,3.5-4,3.5-6.6c0-3.8-3.4-7.3-7-7.3C229.5,95.9,225.2,98.5,221,101.6z"/><path fill="#000000" d="M11.9,159.2c-2.6,2.6-2.5,7.6,0.3,10.2c2.1,2,3,2.1,20.3,2.1h18.1v-7.1v-7.1H32.2C15,157.3,13.7,157.4,11.9,159.2z"/><path fill="#000000" d="M205.4,164.4v7.1h18.2c17.8,0,18.3-0.1,20.3-2.2c2.6-2.8,2.7-7.6,0.2-10.1c-1.8-1.8-3.1-1.9-20.3-1.9h-18.4V164.4L205.4,164.4z"/><path fill="#000000" d="M52.5,200.2c-8.4,2.9-25.5,13.5-31.9,19.7c-3.2,3.1-3.1,7.8,0.2,10.7c3.8,3.2,6.1,2.7,13.4-2.8c7.9-6.1,16.3-11.1,22.4-13.4c2.5-0.9,4.4-2,4.4-2.3c0-0.4-1.1-3.4-2.6-6.8l-2.6-6.2L52.5,200.2z"/><path fill="#000000" d="M197.6,205.3c-1.4,3.5-2.6,6.6-2.6,6.9s2,1.2,4.5,2.2c5.9,2.3,14.4,7.3,22.3,13.4c7.2,5.5,9.4,6,13.2,3c2.2-1.7,2.5-2.6,2.3-5.9c-0.3-3.6-0.8-4.3-7.3-9.3c-8-6.1-18.6-12.5-25.3-15l-4.5-1.7L197.6,205.3z"/></g></g></g>
</svg>